PathFileType	4	(x/y/z)	S04_PSF_T07.trc
DataRate	CameraRate	NumFrames	NumMarkers	Units	OrigDataRate	OrigDataStartFrame	OrigNumFrames
240	240	6	51	mm	240	214	427
Frame#	Time	Sternum			R.Acromium			L.Acromium			Top.Head			R.ASIS			L.ASIS			R.PSIS			L.PSIS			R.Great.Tro			L.Great.Tro			R.Iliac.Crest			L.Iliac.Crest			V.Sacral			R.Thigh.Upper.Post			R.Thigh.Lower.Ant			R.Thigh.Lower.Post			R.Thigh.Upper.Ant			R.Knee.Lat			R.Knee.Med			R.Shank.Upper.Post			R.Shank.Lower.Ant			R.Shank.Lower.Post			R.Shank.Upper.Ant			R.Ankle.Lat			R.Ankle.Med			R.Heel.Upper			R.Heel.Med			R.Heel.Lat			R.Toe.Lat			R.Toe.Med			R.Toe.Tip			L.Thigh.Upper.Post			L.Thigh.Lower.Ant			L.Thigh.Lower.Post			L.Thigh.Upper.Ant			L.Knee.Lat			L.Knee.Med			L.Shank.Upper.Post			L.Shank.Lower.Ant			L.Shank.Lower.Post			L.Shank.Upper.Ant			L.Ankle.Lat			L.Ankle.Med			L.Heel.Upper			L.Heel.Med			L.Heel.Lat			L.Toe.Lat			L.Toe.Med			L.Toe.Tip			Cervical.Spine			Back			
		X1	Y1	Z1	X2	Y2	Z2	X3	Y3	Z3	X4	Y4	Z4	X5	Y5	Z5	X6	Y6	Z6	X7	Y7	Z7	X8	Y8	Z8	X9	Y9	Z9	X10	Y10	Z10	X11	Y11	Z11	X12	Y12	Z12	X13	Y13	Z13	X14	Y14	Z14	X15	Y15	Z15	X16	Y16	Z16	X17	Y17	Z17	X18	Y18	Z18	X19	Y19	Z19	X20	Y20	Z20	X21	Y21	Z21	X22	Y22	Z22	X23	Y23	Z23	X24	Y24	Z24	X25	Y25	Z25	X26	Y26	Z26	X27	Y27	Z27	X28	Y28	Z28	X29	Y29	Z29	X30	Y30	Z30	X31	Y31	Z31	X32	Y32	Z32	X33	Y33	Z33	X34	Y34	Z34	X35	Y35	Z35	X36	Y36	Z36	X37	Y37	Z37	X38	Y38	Z38	X39	Y39	Z39	X40	Y40	Z40	X41	Y41	Z41	X42	Y42	Z42	X43	Y43	Z43	X44	Y44	Z44	X45	Y45	Z45	X46	Y46	Z46	X47	Y47	Z47	X48	Y48	Z48	X49	Y49	Z49	X50	Y50	Z50	X51	Y51	Z51	

214	0.8875	-277.85	1289	302.27	-401.64	1510.2	486.76	-417.37	1506	137.5	-391.95	1840.2	303.66	-309.22	1002.8	438.77	-310.12	1019.5	190.26	-520.26	1042.5	336.39	-511.46	1044.9	256.42	-400.13	923.64	498.69	-418.32	933.93	120.24	-393.1	1095	479.05	-409.24	1103	146.35	-538.18	1002.8	296.11	-395.06	663.61	476.32	-319.72	583.32	438.23	-394.12	573.84	459.18	-310.98	691.1	464.86	-367.93	506.47	444.16	-394.93	504.91	319.44	-449.88	282.98	436.48	-387.85	205.31	387.68	-453.44	214.13	417.2	-386.89	273.65	414.78	-445.04	101.77	391.25	-428.58	118.28	303.09	-514.34	74.612	336.47	-506	44.799	305.16	-507.65	41.568	370.33	-337.1	38.066	414.53	-302.82	41.772	294.37	-239.3	59.043	341.33	-352.15	696.31	118.94	-242.12	634.08	117.58	-312.37	616.12	128.83	-286.23	712.57	105.84	-257.71	540.27	132.33	-240.54	524.53	258.74	-419.05	437.62	150.3	-408.77	327.58	139.86	-455.86	369.21	155.55	-372.51	395.25	133.72	-515.12	214.14	163	-492.47	215.02	252.7	-588.5	224.7	217.4	-593.35	199.96	251.43	-602.98	200.54	189.86	-459.5	97.833	132.78	-415.66	85.109	242.03	-367.63	68.18	188.03	-458.65	1560	319.62	-537.1	1302.5	297.27
215	0.89167	-272.7	1289	302.32	-395.89	1510.3	486.94	-412.29	1506	137.69	-386.3	1840.3	303.67	-304.75	1002.7	439.33	-304.85	1019.7	190.78	-515.41	1042.6	336.14	-506.4	1045.1	256.19	-396.04	923.58	498.77	-412.58	934.22	120.25	-388.73	1095	479.29	-403.96	1103.2	146.45	-533.21	1002.9	295.78	-392.85	663.71	476.35	-317.96	582.83	438.62	-392.5	573.92	459.34	-308.5	690.55	465.22	-366.82	506.32	444.4	-393.35	504.9	319.55	-449.46	283.14	436.38	-387.5	205.29	387.75	-453.17	214.29	417.03	-386.38	273.61	414.9	-444.87	101.92	391.08	-428.36	118.36	302.88	-514.32	74.787	336.32	-506.09	44.883	305.02	-507.58	41.761	370.25	-337.08	38.046	414.53	-302.74	41.616	294.29	-239.22	58.763	341.33	-344.85	697.02	118.78	-234.33	635.62	118.03	-304.51	617.11	128.78	-278.93	713.75	106.05	-249.39	541.48	132.71	-232.4	526.03	259.07	-409.01	435.64	150.16	-396.61	325.8	140.05	-444.51	366.55	155.49	-361.63	394.14	133.85	-500.71	210.21	163.04	-478.3	211.68	252.79	-574.47	219.2	217.26	-578.79	194.38	251.33	-588.35	194.72	189.75	-442.45	95.106	133.05	-398.56	83.492	242.42	-350.1	67.522	188.55	-453.16	1560.1	319.91	-531.87	1302.7	297.71
216	0.89583	-267.56	1289	302.37	-390.14	1510.4	487.1	-407.19	1506	137.88	-380.65	1840.3	303.67	-300.26	1002.5	439.88	-299.6	1019.8	191.29	-510.56	1042.6	335.91	-501.35	1045.1	255.97	-391.93	923.49	498.84	-406.88	934.45	120.26	-384.31	1095	479.52	-398.7	1103.3	146.54	-528.24	1002.9	295.46	-390.6	663.81	476.36	-316.18	582.34	438.99	-390.86	574	459.48	-306	689.99	465.55	-365.68	506.16	444.63	-391.76	504.89	319.65	-449.03	283.31	436.27	-387.13	205.26	387.82	-452.89	214.46	416.86	-385.87	273.56	415	-444.71	102.07	390.91	-428.15	118.44	302.66	-514.31	74.965	336.16	-506.16	44.966	304.89	-507.51	41.956	370.16	-337.05	38.028	414.53	-302.67	41.463	294.21	-239.13	58.484	341.32	-337.64	697.66	118.65	-226.66	637.07	118.48	-296.77	618.04	128.77	-271.74	714.85	106.27	-241.18	542.61	133.09	-224.36	527.46	259.4	-398.99	433.58	150.03	-384.42	323.97	140.23	-433.13	363.81	155.44	-350.76	392.97	133.97	-486.19	206.24	163.07	-464.03	208.29	252.86	-560.3	213.64	217.12	-564.09	188.75	251.23	-573.56	188.86	189.65	-425.32	92.412	133.3	-381.36	81.899	242.78	-332.52	66.91	189.03	-447.66	1560.2	320.19	-526.64	1302.9	298.14
217	0.9	-262.41	1288.9	302.42	-384.39	1510.4	487.26	-402.07	1506	138.05	-374.99	1840.3	303.66	-295.76	1002.3	440.4	-294.36	1019.9	191.77	-505.72	1042.6	335.68	-496.3	1045.1	255.76	-387.8	923.37	498.91	-401.21	934.63	120.27	-379.85	1095	479.73	-393.46	1103.3	146.62	-523.28	1002.9	295.16	-388.32	663.9	476.36	-314.37	581.84	439.34	-389.18	574.07	459.62	-303.48	689.43	465.85	-364.52	506.01	444.84	-390.16	504.87	319.74	-448.59	283.48	436.16	-386.76	205.24	387.88	-452.59	214.63	416.68	-385.35	273.52	415.09	-444.54	102.23	390.73	-427.94	118.54	302.45	-514.29	75.146	335.99	-506.21	45.05	304.76	-507.43	42.154	370.08	-337.02	38.012	414.52	-302.61	41.315	294.13	-239.04	58.207	341.32	-330.54	698.25	118.56	-219.13	638.44	118.94	-289.15	618.89	128.79	-264.64	715.87	106.49	-233.08	543.67	133.48	-216.43	528.81	259.73	-388.97	431.42	149.9	-372.21	322.1	140.41	-421.72	361	155.39	-339.91	391.74	134.1	-471.56	202.25	163.08	-449.66	204.87	252.92	-546	208.04	216.99	-549.24	183.09	251.12	-558.62	182.97	189.54	-408.1	89.758	133.52	-364.09	80.338	243.12	-314.88	66.35	189.47	-442.15	1560.3	320.46	-521.41	1303	298.56
218	0.90417	-257.26	1288.7	302.47	-378.64	1510.4	487.41	-396.93	1505.9	138.21	-369.33	1840.3	303.64	-291.23	1002	440.9	-289.13	1019.9	192.24	-500.87	1042.5	335.46	-491.26	1045.1	255.56	-383.65	923.23	498.98	-395.57	934.74	120.29	-375.34	1094.9	479.94	-388.24	1103.3	146.69	-518.32	1002.8	294.87	-386.01	663.98	476.35	-312.54	581.35	439.66	-387.46	574.14	459.74	-300.93	688.87	466.1	-363.33	505.84	445.04	-388.56	504.85	319.82	-448.14	283.66	436.04	-386.38	205.21	387.94	-452.28	214.8	416.49	-384.82	273.48	415.18	-444.37	102.38	390.56	-427.74	118.64	302.24	-514.26	75.326	335.82	-506.24	45.135	304.63	-507.36	42.353	369.99	-337	37.998	414.5	-302.55	41.171	294.05	-238.95	57.934	341.31	-323.54	698.76	118.51	-211.73	639.71	119.41	-281.66	619.68	128.84	-257.66	716.81	106.73	-225.09	544.66	133.87	-208.59	530.09	260.07	-378.97	429.18	149.79	-359.99	320.19	140.59	-410.29	358.12	155.36	-329.08	390.47	134.22	-456.82	198.25	163.09	-435.19	201.41	252.97	-531.57	202.41	216.85	-534.25	177.4	251	-543.53	177.07	189.44	-390.8	87.153	133.73	-346.75	78.816	243.44	-297.2	65.848	189.88	-436.64	1560.4	320.7	-516.19	1303.1	298.95
219	0.90833	-252.12	1288.5	302.51	-372.9	1510.3	487.55	-391.76	1505.7	138.36	-363.67	1840.2	303.61	-286.69	1001.8	441.37	-283.92	1019.8	192.68	-496.01	1042.4	335.25	-486.23	1045	255.37	-379.47	923.06	499.04	-389.98	934.8	120.31	-370.78	1094.7	480.12	-383.05	1103.3	146.76	-513.37	1002.7	294.61	-383.66	664.05	476.34	-310.67	580.85	439.96	-385.7	574.21	459.86	-298.36	688.31	466.32	-362.11	505.68	445.22	-386.95	504.82	319.89	-447.66	283.83	435.91	-386	205.19	387.99	-451.96	214.97	416.31	-384.29	273.44	415.26	-444.2	102.54	390.38	-427.55	118.76	302.04	-514.23	75.505	335.66	-506.25	45.221	304.52	-507.28	42.554	369.9	-336.97	37.984	414.48	-302.51	41.032	293.97	-238.85	57.664	341.31	-316.66	699.21	118.5	-204.46	640.89	119.88	-274.3	620.39	128.92	-250.78	717.67	106.98	-217.22	545.57	134.27	-200.86	531.29	260.41	-368.97	426.86	149.7	-347.74	318.27	140.77	-398.83	355.18	155.33	-318.26	389.14	134.35	-441.98	194.25	163.08	-420.61	197.93	253.01	-517.01	196.77	216.71	-519.11	171.7	250.87	-528.29	171.16	189.32	-373.42	84.605	133.91	-329.35	77.34	243.75	-279.47	65.408	190.26	-431.12	1560.3	320.93	-510.96	1303.1	299.33
